<?xml version="1.0" encoding="UTF-8" standalone="no"?>
<svg
   xmlns:dc="http://purl.org/dc/elements/1.1/"
   xmlns:cc="http://creativecommons.org/ns#"
   xmlns:rdf="http://www.w3.org/1999/02/22-rdf-syntax-ns#"
   xmlns:svg="http://www.w3.org/2000/svg"
   xmlns="http://www.w3.org/2000/svg"
   xmlns:sodipodi="http://sodipodi.sourceforge.net/DTD/sodipodi-0.dtd"
   xmlns:inkscape="http://www.inkscape.org/namespaces/inkscape"
   version="1.1"
   x="0px"
   y="0px"
   viewBox="0 0 32 32"
   enable-background="new 0 0 64 64"
   xml:space="preserve"
   id="svg2"
   inkscape:version="0.91 r13725"
   sodipodi:docname="check.svg"
   width="32"
   height="32"><metadata
     id="metadata18"><rdf:RDF><cc:Work
         rdf:about=""><dc:format>image/svg+xml</dc:format><dc:type
           rdf:resource="http://purl.org/dc/dcmitype/StillImage" /><dc:title></dc:title></cc:Work></rdf:RDF></metadata><defs
     id="defs16" /><sodipodi:namedview
     pagecolor="#ffffff"
     bordercolor="#666666"
     borderopacity="1"
     objecttolerance="10"
     gridtolerance="10"
     guidetolerance="10"
     inkscape:pageopacity="0"
     inkscape:pageshadow="2"
     inkscape:window-width="1920"
     inkscape:window-height="931"
     id="namedview14"
     showgrid="false"
     inkscape:zoom="2.95"
     inkscape:cx="-20.711864"
     inkscape:cy="40"
     inkscape:window-x="-8"
     inkscape:window-y="-8"
     inkscape:window-maximized="1"
     inkscape:current-layer="svg2" /><g
     id="g4"
     style="fill:#4052f2;fill-opacity:1"
     transform="matrix(0.53097487,0,0,0.56603774,-0.73129335,-2.2742252)"><path
       d="m 52.915,21.895 c -0.7764,0.29 -1.1699,1.1543 -0.8799,1.9302 C 53.0068,26.4238 53.5,29.1743 53.5,32 53.5,44.958 42.958,55.5 30,55.5 17.042,55.5 6.5,44.958 6.5,32 6.5,19.042 17.042,8.5 30,8.5 c 4.9756,0 9.7305,1.5405 13.749,4.4546 0.6709,0.4844 1.6074,0.3374 2.0947,-0.334 0.4863,-0.6704 0.3369,-1.6084 -0.333,-2.0947 C 40.9756,7.2378 35.6123,5.5 30,5.5 15.3877,5.5 3.5,17.3877 3.5,32 3.5,46.6123 15.3877,58.5 30,58.5 44.6123,58.5 56.5,46.6123 56.5,32 c 0,-3.1855 -0.5566,-6.2896 -1.6543,-9.2256 -0.29,-0.7759 -1.1553,-1.168 -1.9307,-0.8794 z"
       id="path6"
       style="fill:#4052f2;fill-opacity:1"
       inkscape:connector-curvature="0" /><path
       d="M 59.71,8.06 57.93,6.29 C 57.55,5.91 56.94,5.9 56.55,6.26 L 28,32.37 18.01,23.26 C 17.8,23.07 17.53,22.98 17.25,23 c -0.27,0.03 -0.53,0.16 -0.7,0.38 l -5.33,6.74 c -0.3199,0.41 -0.28,0.99 0.09,1.35 l 16,15.34 c 0.18,0.18 0.43,0.28 0.69,0.28 l 0.06,0 c 0.27,-0.01 0.53,-0.14 0.71,-0.36 l 31,-37.32 c 0.33,-0.4 0.3,-0.99 -0.06,-1.35 z"
       id="path8"
       style="fill:#4052f2;fill-opacity:1"
       inkscape:connector-curvature="0" /></g></svg>