<?xml version="1.0" encoding="UTF-8" standalone="no"?>
<svg
   xmlns:dc="http://purl.org/dc/elements/1.1/"
   xmlns:cc="http://creativecommons.org/ns#"
   xmlns:rdf="http://www.w3.org/1999/02/22-rdf-syntax-ns#"
   xmlns:svg="http://www.w3.org/2000/svg"
   xmlns="http://www.w3.org/2000/svg"
   xmlns:sodipodi="http://sodipodi.sourceforge.net/DTD/sodipodi-0.dtd"
   xmlns:inkscape="http://www.inkscape.org/namespaces/inkscape"
   version="1.1"
   x="0px"
   y="0px"
   viewBox="0 0 42 42"
   xml:space="preserve"
   id="svg2"
   inkscape:version="0.91 r13725"
   sodipodi:docname="star.svg"
   width="42"
   height="42"><metadata
     id="metadata18"><rdf:RDF><cc:Work
         rdf:about=""><dc:format>image/svg+xml</dc:format><dc:type
           rdf:resource="http://purl.org/dc/dcmitype/StillImage" /><dc:title></dc:title></cc:Work></rdf:RDF></metadata><defs
     id="defs16" /><sodipodi:namedview
     pagecolor="#ffffff"
     bordercolor="#666666"
     borderopacity="1"
     objecttolerance="10"
     gridtolerance="10"
     guidetolerance="10"
     inkscape:pageopacity="0"
     inkscape:pageshadow="2"
     inkscape:window-width="1920"
     inkscape:window-height="931"
     id="namedview14"
     showgrid="false"
     inkscape:zoom="5.9"
     inkscape:cx="84.991501"
     inkscape:cy="40.214041"
     inkscape:window-x="-8"
     inkscape:window-y="-8"
     inkscape:window-maximized="1"
     inkscape:current-layer="svg2" /><g
     id="g4"
     style="fill:#fcaa23;fill-opacity:1"
     transform="matrix(0.04793208,0,0,0.05009227,-3.5948925,-4.6107898)"><g
       id="g6"
       style="fill:#fcaa23;fill-opacity:1"><path
         d="m 477.5,172.8 c 13.3,26.6 26.6,53.2 39.8,79.8 21.2,42.5 42.4,85 63.6,127.5 4.8,9.7 9.3,19.7 14.5,29.1 10.4,18.7 25.2,19 42.5,21.5 44.4,6.5 88.9,12.9 133.3,19.4 35.2,5.1 70.4,10.6 105.6,15.4 0.6,0.1 1.2,0.2 1.8,0.3 -5.9,-22.3 -11.8,-44.6 -17.7,-66.9 -21.4,21 -42.8,42 -64.2,62.9 -33.9,33.3 -67.9,66.5 -101.8,99.8 -7.5,7.3 -15.1,14.5 -22.5,22 -2.6,2.7 -0.7,-1.6 -6.5,8.3 -5.8,10 -5.8,20 -4,31.1 0.2,1 0.4,2.1 0.5,3.1 0.9,5.1 1.8,10.3 2.6,15.4 7.6,44.5 15.3,88.9 22.9,133.4 6,35.1 11.7,70.3 18.1,105.3 0.1,0.6 0.2,1.2 0.3,1.7 19.6,-15.1 39.2,-30.1 58.8,-45.2 -26.7,-14 -53.4,-28.1 -80.1,-42.1 -41.8,-22 -83.7,-44 -125.5,-66 -9.1,-4.8 -18.2,-9.7 -27.4,-14.4 -13.9,-7 -27.2,-6.9 -40.9,0.1 -1,0.5 -2,1.1 -3,1.6 -4.8,2.5 -9.6,5 -14.4,7.6 -40,21 -80,41.9 -119.9,62.9 -31.6,16.6 -63.3,32.8 -94.8,49.7 -0.5,0.3 -1,0.5 -1.6,0.8 19.6,15.1 39.2,30.1 58.8,45.2 5.1,-29.6 10.2,-59.2 15.3,-88.9 8,-46.6 16,-93.2 24,-139.8 1.7,-10.1 3.5,-20.2 5.2,-30.3 1.6,-9.6 1.9,-17.2 -2,-26.3 -2.2,-5.2 -4.4,-8.9 -8.5,-13.1 -0.8,-0.8 -1.6,-1.6 -2.4,-2.4 -3.9,-3.8 -7.8,-7.6 -11.6,-11.5 -32.2,-31.7 -64.4,-63.4 -96.6,-95.2 -25.2,-24.8 -50.2,-49.9 -75.7,-74.5 -0.4,-0.4 -0.8,-0.8 -1.3,-1.2 -5.9,22.3 -11.8,44.6 -17.7,66.9 29.7,-4.3 59.5,-8.7 89.2,-13 46.6,-6.8 93.3,-13.6 139.9,-20.4 9.6,-1.4 19.6,-2.1 29.1,-4.2 10,-2.2 19.6,-10.1 24.3,-19 0.6,-1.2 1.2,-2.3 1.8,-3.5 2.5,-5 5,-10 7.6,-15.1 20.4,-40.5 40.7,-81 61.1,-121.5 15.9,-31.6 31.9,-63 47.6,-94.7 0.3,-0.5 0.5,-1 0.8,-1.6 4.8,-9.6 7,-20.2 4,-30.8 -2.6,-9.3 -9.7,-19.3 -18.4,-23.9 -9.3,-4.9 -20.5,-7.4 -30.8,-4 -9.6,3.1 -19.2,9.1 -23.9,18.4 -13.4,26.7 -26.9,53.5 -40.3,80.2 -21.3,42.4 -42.7,84.9 -64,127.3 -4.9,9.8 -9.8,19.5 -14.7,29.3 8,-6.1 15.9,-12.3 23.9,-18.4 -29.1,4.2 -58.2,8.5 -87.3,12.7 -46.4,6.8 -92.8,13.5 -139.1,20.3 -10.6,1.5 -21.2,3.1 -31.8,4.6 -13.3,1.9 -24.6,15.8 -27.9,27.9 -3.8,13.7 0.1,28.9 10.3,38.9 21.3,21 42.5,41.9 63.8,62.9 33.6,33.1 67.2,66.2 100.8,99.3 7.7,7.6 15.5,15.2 23.2,22.9 -3.4,-13 -6.9,-25.9 -10.3,-38.9 -5,29.2 -10,58.3 -15,87.5 -8,46.5 -16,93 -24,139.5 -1.8,10.7 -3.7,21.4 -5.5,32.2 -1.2,7.1 -1.9,14.2 0,21.3 2.3,8.4 7.5,15.5 14.3,20.8 13,10.1 29.9,10.7 44.4,3.1 26.4,-13.8 52.8,-27.7 79.2,-41.5 42,-22 84,-44.1 126.1,-66.1 9.6,-5 19.2,-10.1 28.8,-15.1 -13.5,0 -26.9,0 -40.4,0 26.4,13.9 52.8,27.8 79.2,41.7 41.7,21.9 83.4,43.9 125.2,65.8 9.6,5.1 19.2,10.1 28.8,15.2 14.5,7.6 31.3,7 44.4,-3.1 5.6,-4.4 9.5,-9.4 12.3,-16 3.7,-8.8 3.6,-16.6 2,-26 -5,-29.2 -10,-58.3 -15,-87.5 -8,-46.5 -16,-93 -24,-139.5 -1.8,-10.7 -3.7,-21.4 -5.5,-32.2 -3.4,13 -6.9,25.9 -10.3,38.9 21.3,-20.9 42.5,-41.7 63.8,-62.6 33.9,-33.2 67.8,-66.5 101.6,-99.7 7.7,-7.6 15.5,-15.2 23.2,-22.8 10.2,-10 14,-25.3 10.3,-38.9 -3.3,-12.2 -14.6,-26 -27.9,-27.9 -29.2,-4.2 -58.5,-8.5 -87.7,-12.7 -46.5,-6.8 -93.1,-13.5 -139.6,-20.3 -10.6,-1.5 -21.2,-3.1 -31.8,-4.6 8,6.1 15.9,12.3 23.9,18.4 -13.3,-26.7 -26.7,-53.5 -40,-80.2 -21.2,-42.4 -42.4,-84.9 -63.6,-127.3 -4.9,-9.8 -9.8,-19.5 -14.6,-29.3 -4.3,-8.6 -14.8,-15.9 -23.9,-18.4 -9.6,-2.6 -22.3,-1.4 -30.8,4 -19.2,12.3 -24.4,34.6 -14.3,54.6 z"
         id="path8"
         style="fill:#fcaa23;fill-opacity:1"
         inkscape:connector-curvature="0" /></g></g></svg>